<svg xmlns="http://www.w3.org/2000/svg" viewBox="0 0 100 70" width="100%" height="100%" fill="none">
  <!-- Rotation to tilt the entire logo just like the image -->
  <g transform="rotate(-13 50 35)">
    <!-- Blue shape (J / Left Leaf & Top-Left Arc) -->
    <path d="M 45,5 C 20,5 2,17 2,32 C 2,42 10,50 20,54 C 21,54 22,52 21,50 C 13,46 9,40 9,32 C 9,20 25,10 45,10 C 53,10 61,12 67,15 C 64,10 55,5 45,5 Z M 48,12 C 40,16 32,24 32,33 C 32,41 38,47 45,47 C 49,47 53,44 56,41 C 50,39 45,34 45,28 C 45,21 52,12 52,12 Z" fill="#0083ca" />
    
    <!-- Teal shape (K / Right Leaf & Bottom-Right Arc) -->
    <path d="M 55,65 C 80,65 98,53 98,38 C 98,28 90,20 80,16 C 79,16 78,18 79,20 C 87,24 91,30 91,38 C 91,50 75,60 55,60 C 47,60 39,58 33,55 C 36,60 45,65 55,65 Z M 48,58 C 55,58 62,53 66,47 C 62,45 58,43 55,40 C 60,39 66,41 72,44 C 68,36 62,29 55,24 C 49,29 45,37 44,44 C 43,51 42,58 48,58 Z" fill="#0fa4a9" />
  </g>
</svg>
